<svg xmlns="http://www.w3.org/2000/svg" xmlns:xlink="http://www.w3.org/1999/xlink" viewBox="0 0 106.25 74.375" fill="#fff" fill-rule="evenodd" stroke="#000" stroke-linecap="round" stroke-linejoin="round"><use xlink:href="#A" x="3.125" y="2.188"/><symbol id="A" overflow="visible"><g fill="#876929" stroke="none"><path d="M8.687 52.541h91.314V70H8.687zm0-20.097h91.314v15.885H8.687zm91.314-8.448v3.112H19.782v-3.112L65.98 7.036l34.021 16.96zm-59.2-10.048l-15.789.575a18.31 18.31 0 0 0-1.115-6.249v-3.05c.346.962 14.563 4.037 14.563 4.037z"/><path d="M25.011 11.41v3.112c-.007-2.144-.386-4.266-1.115-6.249V5.224c.723 1.963 1.101 4.063 1.115 6.186"/></g><path d="M100.001 5.224v18.747H19.782c4.855-4.585 6.529-12.15 4.148-18.747zM8.687 29.557h91.314v15.66H8.687zm0 21.696h91.314V66.9H8.687z" stroke="none" fill="#d9a741"/><path d="M20.595 14.636c0 6.371-4.608 11.535-10.292 11.535S.011 21.006.011 14.636v-3.1L10.303 3.1l10.292 8.436z" fill="#8d090a" stroke="none"/><path d="M0 11.536C0 5.145 4.59 0 10.292 0s10.292 5.145 10.292 11.536-4.59 11.535-10.292 11.535S0 17.926 0 11.536z" fill="#ea2227" stroke="none"/><path d="M11.653 32.869h85.381v9.048H11.653zm0 21.684h85.381v9.048H11.653zM42.819 8.998h2.331v4.912h2.721V8.998h2.33v12.848h-2.33v-5.699H45.15v5.699h-2.331zm15.756 0v2.125h-2.52v10.723h-2.33V11.123h-2.52V8.998zm7.761 0v2.125h-2.52v10.723h-2.33V11.123h-2.565V8.998zm1.015 0h4.07c2.364 0 3.167 1.925 3.167 3.849 0 2.662-1.472 3.874-3.669 3.874H69.67v5.124h-2.319zm2.331 5.812h1.037c.925 0 1.55-.612 1.55-1.925s-.446-1.975-1.617-1.975h-.97z" stroke="none"/></symbol></svg>